<?xml version="1.0" standalone="no"?>
<!DOCTYPE svg PUBLIC "-//W3C//DTD SVG 20010904//EN"
 "http://www.w3.org/TR/2001/REC-SVG-20010904/DTD/svg10.dtd">
<svg version="1.0" xmlns="http://www.w3.org/2000/svg"
 width="512.000000pt" height="512.000000pt" viewBox="0 0 512.000000 512.000000"
 preserveAspectRatio="xMidYMid meet">
<metadata>
Created by potrace 1.11, written by Peter Selinger 2001-2013
</metadata>
<g transform="translate(0.000000,512.000000) scale(0.100000,-0.100000)"
fill="#000000" stroke="none">
<path d="M1218 4785 c-2 -2 -21 -6 -43 -9 -51 -8 -58 -9 -130 -30 -71 -21
-265 -114 -265 -127 0 -5 -5 -9 -11 -9 -23 0 -137 -103 -212 -192 -322 -380
-293 -985 64 -1337 133 -132 344 -254 457 -263 6 -1 12 -4 12 -8 0 -3 8 -6 18
-6 9 -1 31 -4 47 -7 79 -15 169 -18 695 -18 311 0 585 0 608 1 24 0 42 4 40 9
-1 5 -26 34 -53 63 -28 29 -79 87 -115 128 -36 41 -78 88 -94 105 -15 16 -39
44 -53 62 l-25 32 31 45 c17 24 31 49 31 54 0 6 4 12 8 14 12 5 59 109 82 180
36 111 49 205 46 333 -6 221 -71 408 -206 590 -21 28 -171 175 -206 202 -16
13 -35 23 -41 23 -7 0 -13 4 -13 8 0 13 -177 97 -245 117 -33 9 -60 17 -60 17
0 0 -29 5 -64 13 -52 11 -293 19 -303 10z m-242 -572 c64 -42 74 -144 19 -199
-86 -87 -240 -7 -219 114 15 89 124 135 200 85z m870 6 c59 -24 86 -105 55
-169 -9 -18 -25 -38 -36 -44 -11 -6 -22 -14 -25 -17 -14 -16 -69 -16 -106 0
-106 48 -99 201 11 238 36 12 59 10 101 -8z m-816 -599 c14 -34 100 -130 117
-130 6 0 13 -4 15 -9 2 -4 30 -18 62 -29 83 -30 190 -26 268 10 62 29 148 109
168 158 10 23 19 30 41 30 41 0 46 -31 14 -86 -30 -51 -121 -144 -142 -144 -7
0 -13 -4 -13 -8 0 -9 -46 -28 -110 -46 -44 -13 -160 -14 -209 -2 -102 24 -237
129 -276 215 -22 49 -15 71 23 71 23 0 32 -6 42 -30z"/>
<path d="M3632 4775 c-34 -6 -64 -9 -67 -7 -3 3 -5 1 -5 -4 0 -5 -10 -10 -23
-11 -29 -3 -46 -7 -80 -21 -16 -7 -31 -12 -33 -12 -3 0 -31 -12 -62 -27 -249
-116 -450 -349 -533 -619 -12 -37 -23 -81 -25 -98 -3 -17 -7 -42 -10 -56 -3
-14 -6 -314 -8 -667 l-2 -643 25 23 c14 12 33 29 42 37 9 8 31 29 50 45 72 63
234 209 239 214 26 30 40 33 67 13 50 -36 194 -112 217 -116 6 -1 16 -4 21 -8
25 -15 190 -49 260 -54 43 -2 82 -7 87 -10 4 -3 8 -2 8 3 0 4 24 8 53 9 80 1
143 12 239 44 119 39 278 120 278 141 0 5 6 9 14 9 22 0 177 157 230 232 64
91 142 256 151 323 1 6 3 12 4 15 3 5 5 18 20 93 9 50 7 281 -3 329 -4 15 -11
39 -16 53 -5 14 -8 25 -5 25 8 0 -42 136 -72 195 -34 68 -77 136 -113 180 -51
62 -162 166 -220 205 -69 47 -216 120 -241 120 -10 0 -20 4 -23 9 -3 4 -22 12
-43 16 -21 3 -58 11 -83 16 -70 15 -268 17 -338 4z m-226 -560 c105 -68 60
-235 -64 -237 -147 -2 -188 189 -52 248 32 14 86 9 116 -11z m873 5 c44 -23
65 -61 66 -113 0 -44 -5 -57 -29 -84 -46 -51 -115 -59 -173 -20 -110 74 -37
250 96 230 13 -2 31 -8 40 -13z m-169 -620 c0 -8 -13 -42 -29 -75 -58 -121
-169 -197 -294 -200 -138 -4 -252 70 -316 205 -27 59 -31 72 -20 80 4 3 154 5
333 5 283 0 326 -2 326 -15z"/>
<path d="M2309 2457 c-25 -23 -62 -55 -81 -72 -38 -32 -105 -90 -207 -178
l-64 -56 -32 24 c-55 42 -205 116 -265 131 -8 2 -40 10 -70 18 -30 9 -75 19
-100 22 -44 7 -261 7 -290 1 -8 -2 -40 -9 -72 -16 -31 -6 -80 -21 -110 -32
-29 -11 -58 -21 -63 -22 -29 -6 -149 -76 -213 -124 -133 -99 -226 -210 -300
-358 -41 -81 -72 -164 -72 -190 0 -8 -3 -15 -7 -15 -5 0 -8 -10 -9 -22 0 -13
-4 -41 -9 -63 -10 -48 -12 -243 -3 -305 10 -76 46 -202 73 -257 14 -29 25 -56
25 -59 0 -4 26 -46 57 -93 97 -148 262 -293 413 -364 61 -28 161 -64 200 -71
14 -2 45 -9 70 -15 47 -11 295 -8 365 4 22 4 72 18 110 31 39 14 75 26 80 27
23 6 142 71 199 109 70 48 197 173 241 238 16 25 32 47 35 50 32 29 123 256
136 336 3 22 9 44 12 49 8 13 11 1305 3 1310 -4 2 -27 -16 -52 -38z m-1338
-673 c19 -11 53 -54 57 -73 30 -123 -106 -215 -203 -139 -29 23 -51 64 -49 93
0 11 2 31 3 44 1 24 67 95 80 87 4 -3 13 -1 20 3 14 9 69 0 92 -15z m886 -2
c55 -30 75 -121 39 -175 -29 -44 -85 -70 -131 -61 -110 20 -146 163 -59 229
19 14 34 24 34 21 0 -3 10 -2 22 3 23 8 59 2 95 -17z m-455 -629 c75 -67 61
-225 -24 -266 -33 -16 -40 -17 -66 -3 -89 46 -101 207 -20 270 34 26 80 26
110 -1z"/>
</g>
</svg>
