<?xml version="1.0" standalone="no"?>
<!DOCTYPE svg PUBLIC "-//W3C//DTD SVG 20010904//EN"
 "http://www.w3.org/TR/2001/REC-SVG-20010904/DTD/svg10.dtd">
<svg version="1.0" xmlns="http://www.w3.org/2000/svg"
 width="100.000000pt" height="100.000000pt" viewBox="0 0 100.000000 100.000000"
 preserveAspectRatio="xMidYMid meet">
<metadata>
Created by potrace 1.14, written by Peter Selinger 2001-2017
</metadata>
<g transform="translate(0.000000,100.000000) scale(0.100000,-0.100000)"
fill="#000000" stroke="none">
<path d="M0 500 l0 -500 500 0 500 0 0 500 0 500 -500 0 -500 0 0 -500z m515
70 c181 -181 326 -333 322 -337 -8 -7 -667 645 -667 659 0 5 3 8 8 8 4 0 155
-148 337 -330z m325 104 c0 -147 -3 -223 -10 -219 -6 4 -10 84 -10 208 l0 202
-115 -115 c-63 -63 -118 -111 -122 -107 -7 8 235 257 249 257 5 0 8 -102 8
-226z m-543 -86 c62 -62 113 -119 113 -128 0 -8 -49 35 -110 95 l-110 110 0
-218 c0 -138 -4 -217 -10 -217 -6 0 -10 85 -10 235 0 129 3 235 7 235 4 0 58
-51 120 -112z m21 -435 c-9 -2 -19 -14 -21 -26 -4 -18 -5 -17 -6 6 -1 22 3 27
22 26 15 -1 17 -3 5 -6z m65 0 c-7 -2 -19 -2 -25 0 -7 3 -2 5 12 5 14 0 19 -2
13 -5z m71 -2 c3 -4 -6 -6 -19 -3 -14 2 -25 6 -25 8 0 8 39 4 44 -5z m59 2
c-7 -2 -21 -2 -30 0 -10 3 -4 5 12 5 17 0 24 -2 18 -5z m120 0 c-7 -2 -19 -2
-25 0 -7 3 -2 5 12 5 14 0 19 -2 13 -5z m-113 -33 c0 -5 -7 -7 -15 -4 -8 4
-15 8 -15 10 0 2 7 4 15 4 8 0 15 -4 15 -10z"/>
</g>
</svg>
